<svg width="97" height="91" viewBox="0 0 97 91" fill="none" xmlns="http://www.w3.org/2000/svg">
<rect y="4" width="93" height="81" rx="10" fill="#4ADE80" fill-opacity="0.24"/>
<path d="M22.1 73C20.4225 73 18.9865 72.3907 17.7919 71.1722C16.5973 69.9537 16 68.4889 16 66.7778V23.2222C16 21.5111 16.5973 20.0463 17.7919 18.8278C18.9865 17.6093 20.4225 17 22.1 17H70.9C72.5775 17 74.0135 17.6093 75.2081 18.8278C76.4027 20.0463 77 21.5111 77 23.2222V66.7778C77 68.4889 76.4027 69.9537 75.2081 71.1722C74.0135 72.3907 72.5775 73 70.9 73H22.1ZM22.1 66.7778H70.9V23.2222H22.1V66.7778ZM28.2 60.5556H64.8V54.3333H28.2V60.5556ZM28.2 48.1111H40.4V29.4444H28.2V48.1111ZM46.5 48.1111H64.8V41.8889H46.5V48.1111ZM46.5 35.6667H64.8V29.4444H46.5V35.6667Z" fill="#005C22"/>
</svg>
