<svg width="93" height="81" viewBox="0 0 93 81" fill="none" xmlns="http://www.w3.org/2000/svg">
<rect width="93" height="81" rx="10" fill="#D7C56A" fill-opacity="0.47"/>
<path d="M17 63V57.225C17 54.5972 17.9014 52.4583 19.7042 50.8083C21.5069 49.1583 23.8833 48.3333 26.8333 48.3333C27.366 48.3333 27.8781 48.3486 28.3698 48.3792C28.8615 48.4097 29.3326 48.4861 29.7833 48.6083C29.2097 49.8917 28.7795 51.2361 28.4927 52.6417C28.2059 54.0472 28.0625 55.5139 28.0625 57.0417V63H17ZM31.75 63V57.0417C31.75 55.0861 32.1085 53.2986 32.8255 51.6792C33.5425 50.0597 34.5566 48.6389 35.8677 47.4167C37.1788 46.1944 38.746 45.2778 40.5693 44.6667C42.3925 44.0556 44.3694 43.75 46.5 43.75C48.6715 43.75 50.6689 44.0556 52.4922 44.6667C54.3155 45.2778 55.8826 46.1944 57.1938 47.4167C58.5049 48.6389 59.5087 50.0597 60.2052 51.6792C60.9017 53.2986 61.25 55.0861 61.25 57.0417V63H31.75ZM64.9375 63V57.0417C64.9375 55.4528 64.8043 53.9556 64.538 52.55C64.2717 51.1444 63.8722 49.8306 63.3396 48.6083C63.7903 48.4861 64.2512 48.4097 64.7224 48.3792C65.1936 48.3486 65.675 48.3333 66.1667 48.3333C69.1167 48.3333 71.4931 49.1431 73.2958 50.7625C75.0986 52.3819 76 54.5361 76 57.225V63H64.9375ZM36.974 55.6667H56.0875C55.6778 54.4444 54.5408 53.375 52.6766 52.4583C50.8123 51.5417 48.7535 51.0833 46.5 51.0833C44.2465 51.0833 42.1877 51.5417 40.3234 52.4583C38.4592 53.375 37.3427 54.4444 36.974 55.6667ZM26.8333 44.6667C25.4813 44.6667 24.3238 43.9486 23.3609 42.5125C22.3981 41.0764 21.9167 39.35 21.9167 37.3333C21.9167 35.2556 22.3981 33.5139 23.3609 32.1083C24.3238 30.7028 25.4813 30 26.8333 30C28.2264 30 29.3941 30.7028 30.3365 32.1083C31.2788 33.5139 31.75 35.2556 31.75 37.3333C31.75 39.35 31.2788 41.0764 30.3365 42.5125C29.3941 43.9486 28.2264 44.6667 26.8333 44.6667ZM66.1667 44.6667C64.8146 44.6667 63.6571 43.9486 62.6943 42.5125C61.7314 41.0764 61.25 39.35 61.25 37.3333C61.25 35.2556 61.7314 33.5139 62.6943 32.1083C63.6571 30.7028 64.8146 30 66.1667 30C67.5597 30 68.7274 30.7028 69.6698 32.1083C70.6122 33.5139 71.0833 35.2556 71.0833 37.3333C71.0833 39.35 70.6122 41.0764 69.6698 42.5125C68.7274 43.9486 67.5597 44.6667 66.1667 44.6667ZM46.5 41C44.4514 41 42.7101 39.9306 41.276 37.7917C39.842 35.6528 39.125 33.0556 39.125 30C39.125 26.8833 39.842 24.2708 41.276 22.1625C42.7101 20.0542 44.4514 19 46.5 19C48.5896 19 50.3411 20.0542 51.7547 22.1625C53.1682 24.2708 53.875 26.8833 53.875 30C53.875 33.0556 53.1682 35.6528 51.7547 37.7917C50.3411 39.9306 48.5896 41 46.5 41ZM46.5 33.6667C47.1965 33.6667 47.7804 33.3153 48.2516 32.6125C48.7227 31.9097 48.9583 31.0389 48.9583 30C48.9583 28.9611 48.7227 28.0903 48.2516 27.3875C47.7804 26.6847 47.1965 26.3333 46.5 26.3333C45.8035 26.3333 45.2196 26.6847 44.7484 27.3875C44.2773 28.0903 44.0417 28.9611 44.0417 30C44.0417 31.0389 44.2773 31.9097 44.7484 32.6125C45.2196 33.3153 45.8035 33.6667 46.5 33.6667Z" fill="#FFD500"/>
</svg>
