<svg width="93" height="81" viewBox="0 0 93 81" fill="none" xmlns="http://www.w3.org/2000/svg">
<rect width="93" height="81" rx="10" fill="#A8C6EC"/>
<path d="M26.5714 61C25.3143 61 24.2381 60.5539 23.3429 59.6618C22.4476 58.7697 22 57.6972 22 56.4444V29.1111H26.5714V56.4444H60.8571V61H26.5714ZM35.7143 51.8889C34.4571 51.8889 33.381 51.4428 32.4857 50.5507C31.5905 49.6586 31.1429 48.5861 31.1429 47.3333V20H70V47.3333C70 48.5861 69.5524 49.6586 68.6571 50.5507C67.7619 51.4428 66.6857 51.8889 65.4286 51.8889H35.7143ZM35.7143 47.3333H65.4286V24.5556H35.7143V47.3333ZM40.2857 40.5H49.4286V29.1111H40.2857V40.5ZM51.7143 40.5H60.8571V35.9444H51.7143V40.5ZM51.7143 33.6667H60.8571V29.1111H51.7143V33.6667Z" fill="#2854C5"/>
</svg>
