<svg width="36" height="36" viewBox="0 0 36 36" fill="none" xmlns="http://www.w3.org/2000/svg">
<rect width="36" height="36" rx="8" fill="#FEECEE"/>
<g clip-path="url(#clip0_28_952)">
<path d="M13.371 15.0587L11.4199 15.8751C10.8694 16.1054 10.433 16.545 10.2066 17.0971C9.9802 17.6492 9.98241 18.2687 10.2127 18.8192L10.7917 20.2029C11.022 20.7534 11.4616 21.1899 12.0137 21.4163C12.5659 21.6427 13.1853 21.6405 13.7358 21.4101L15.6869 20.5938C15.7691 20.5585 15.857 20.5383 15.9464 20.534L21.1333 20.3394C21.2539 20.3347 21.3715 20.301 21.4763 20.2412C21.5811 20.1813 21.6699 20.097 21.7352 19.9955C21.8004 19.894 21.8402 19.7782 21.8512 19.658C21.8621 19.5379 21.8439 19.4168 21.7981 19.3052L18.579 11.6114C18.5317 11.5004 18.4583 11.4025 18.365 11.3259C18.2717 11.2493 18.1613 11.1964 18.0432 11.1716C17.9251 11.1468 17.8028 11.1509 17.6866 11.1834C17.5704 11.216 17.4638 11.2762 17.3758 11.3588L13.5958 14.9159C13.53 14.9765 13.4539 15.0249 13.371 15.0587ZM23.9374 14.7028L22.5537 15.2817C22.3702 15.3585 22.1637 15.3592 21.9797 15.2838C21.7956 15.2083 21.6491 15.0628 21.5723 14.8793C21.4955 14.6958 21.4948 14.4894 21.5703 14.3053C21.6457 14.1213 21.7912 13.9747 21.9747 13.898L23.3585 13.319C23.542 13.2422 23.7485 13.2415 23.9325 13.317C24.1165 13.3924 24.2631 13.5379 24.3398 13.7214C24.4166 13.9049 24.4174 14.1114 24.3419 14.2954C24.2664 14.4795 24.1209 14.626 23.9374 14.7028ZM21.6852 13.2061C21.5573 13.2592 21.4172 13.2758 21.2804 13.2541C21.1436 13.2324 21.0155 13.1732 20.9102 13.0832C20.7598 12.9541 20.6666 12.7708 20.6509 12.5732C20.6353 12.3756 20.6985 12.1798 20.8268 12.0287L21.921 10.7579C21.982 10.6747 22.0595 10.605 22.1487 10.5531C22.2378 10.5013 22.3367 10.4684 22.4392 10.4565C22.5416 10.4445 22.6454 10.4539 22.7441 10.4839C22.8428 10.5139 22.9342 10.564 23.0126 10.6309C23.0911 10.6979 23.1549 10.7803 23.2001 10.873C23.2452 10.9657 23.2708 11.0667 23.2751 11.1698C23.2795 11.2728 23.2625 11.3757 23.2254 11.4719C23.1882 11.5681 23.1316 11.6555 23.059 11.7289L21.9647 12.9997C21.8905 13.091 21.7943 13.162 21.6852 13.2061ZM25.0954 17.4703C24.9874 17.517 24.8693 17.5356 24.7522 17.5245L23.0789 17.4115C22.9758 17.4117 22.8737 17.3906 22.7791 17.3496C22.6845 17.3085 22.5994 17.2484 22.5291 17.1729C22.4587 17.0975 22.4047 17.0084 22.3704 16.9111C22.3361 16.8138 22.3222 16.7106 22.3296 16.6077C22.337 16.5048 22.3656 16.4046 22.4135 16.3132C22.4614 16.2219 22.5276 16.1414 22.608 16.0768C22.6884 16.0122 22.7812 15.9649 22.8808 15.9379C22.9803 15.9108 23.0843 15.9045 23.1864 15.9195L24.8596 16.0324C25.0573 16.0471 25.241 16.1395 25.3708 16.2894C25.5005 16.4393 25.5656 16.6344 25.5519 16.8321C25.5422 16.9703 25.4944 17.103 25.4138 17.2157C25.3332 17.3283 25.223 17.4165 25.0954 17.4703ZM17.9139 25.353C17.5376 25.5127 17.1162 25.5304 16.7279 25.4028C16.3395 25.2752 16.0107 25.011 15.8025 24.6592L14.2259 22.0181L15.9764 21.2857L17.6984 21.2237L18.7169 22.9195C18.8402 23.1285 18.9175 23.3614 18.9435 23.6027C18.9695 23.844 18.9436 24.088 18.8675 24.3184C18.7915 24.5489 18.6671 24.7604 18.5026 24.9388C18.3381 25.1173 18.1374 25.2585 17.9139 25.353Z" fill="#EB3D4D"/>
</g>
<defs>
<clipPath id="clip0_28_952">
<rect width="18" height="18" fill="white" transform="translate(6.22363 13.1712) rotate(-22.7044)"/>
</clipPath>
</defs>
</svg>
