<svg width="32" height="32" viewBox="0 0 32 32" fill="none" xmlns="http://www.w3.org/2000/svg">
<rect width="32" height="32" rx="8" fill="#FBEEDC"/>
<path d="M16 27C14.1333 27 12.4167 26.575 10.85 25.725C9.90103 25.2101 9.05601 24.5913 8.31495 23.8685C7.8648 23.4295 7 23.7267 7 24.3555V24.3555C7 24.7115 6.71146 25 6.35553 25H6C5.44772 25 5 24.5523 5 24V22C5 20.3431 6.34315 19 8 19H10C10.5523 19 11 19.4477 11 20V20.1372C11 20.6137 10.6137 21 10.1372 21V21C9.44806 21 9.05555 21.7587 9.53465 22.2541C10.1532 22.8936 10.8709 23.4423 11.6875 23.9C12.9958 24.6333 14.4333 25 16 25C17.25 25 18.4208 24.7625 19.5125 24.2875C20.6042 23.8125 21.5542 23.1708 22.3625 22.3625C23.1708 21.5542 23.8125 20.6042 24.2875 19.5125C24.6339 18.7165 24.8539 17.8784 24.9477 16.9982C25.0063 16.449 25.4477 16 26 16V16C26.5523 16 27.005 16.4486 26.9573 16.9988C26.8578 18.1463 26.5846 19.2383 26.1375 20.275C25.5625 21.6083 24.775 22.775 23.775 23.775C22.775 24.775 21.6083 25.5625 20.275 26.1375C18.9417 26.7125 17.5167 27 16 27ZM15.825 23C15.4246 23 15.1 22.6754 15.1 22.275V22.275C15.1 21.9382 14.8654 21.6521 14.549 21.5369C14.0122 21.3415 13.5584 21.0584 13.1875 20.6875C12.8613 20.3613 12.592 19.9673 12.3795 19.5054C12.1887 19.0905 12.4252 18.6219 12.85 18.4545V18.4545C13.3333 18.2641 13.8598 18.5427 14.1285 18.9873C14.286 19.2478 14.4724 19.4645 14.6875 19.6375C15.1125 19.9792 15.6 20.15 16.15 20.15C16.7 20.15 17.1708 20.0208 17.5625 19.7625C17.9542 19.5042 18.15 19.1 18.15 18.55C18.15 18.0667 17.9458 17.675 17.5375 17.375C17.1292 17.075 16.4 16.7333 15.35 16.35C14.3667 16 13.6458 15.5833 13.1875 15.1C12.7292 14.6167 12.5 13.9833 12.5 13.2C12.5 12.5167 12.7375 11.8958 13.2125 11.3375C13.5771 10.9089 14.0424 10.5957 14.6083 10.3979C14.917 10.29 15.15 10.0151 15.15 9.68812V9.68812C15.15 9.30808 15.4581 9 15.8381 9H16.249C16.6085 9 16.9 9.29146 16.9 9.651V9.651C16.9 9.98957 17.1638 10.2629 17.4865 10.3653C17.8607 10.4841 18.2111 10.6873 18.5375 10.975C18.8113 11.2163 19.0373 11.4809 19.2154 11.7687C19.4552 12.156 19.225 12.632 18.803 12.8035V12.8035C18.3391 12.9919 17.8231 12.7317 17.4832 12.3641C17.426 12.3023 17.365 12.2434 17.3 12.1875C17 11.9292 16.5833 11.8 16.05 11.8C15.4667 11.8 15.0208 11.925 14.7125 12.175C14.4042 12.425 14.25 12.7667 14.25 13.2C14.25 13.6333 14.4417 13.975 14.825 14.225C15.2083 14.475 15.9 14.7667 16.9 15.1C18.1 15.5333 18.9 16.0417 19.3 16.625C19.7 17.2083 19.9 17.85 19.9 18.55C19.9 19.0333 19.8167 19.4583 19.65 19.825C19.4833 20.1917 19.2625 20.5042 18.9875 20.7625C18.7125 21.0208 18.3917 21.2292 18.025 21.3875C17.8231 21.4747 17.6136 21.5505 17.3965 21.615C17.0826 21.7081 16.85 21.9857 16.85 22.3131V22.3131C16.85 22.6925 16.5425 23 16.1631 23H15.825ZM6 16C5.44772 16 4.995 15.5514 5.0427 15.0012C5.14218 13.8537 5.41544 12.7617 5.8625 11.725C6.4375 10.3917 7.225 9.225 8.225 8.225C9.225 7.225 10.3917 6.4375 11.725 5.8625C13.0583 5.2875 14.4833 5 16 5C17.8667 5 19.5833 5.425 21.15 6.275C22.099 6.78987 22.944 7.40869 23.685 8.13147C24.1352 8.57052 25 8.27327 25 7.64447V7.64447C25 7.28854 25.2885 7 25.6445 7H26C26.5523 7 27 7.44772 27 8V10C27 11.6569 25.6569 13 24 13H22C21.4477 13 21 12.5523 21 12V11.8628C21 11.3863 21.3863 11 21.8628 11V11C22.5519 11 22.9444 10.2413 22.4653 9.74593C21.8468 9.10638 21.1291 8.55773 20.3125 8.1C19.0042 7.36667 17.5667 7 16 7C14.75 7 13.5792 7.2375 12.4875 7.7125C11.3958 8.1875 10.4458 8.82917 9.6375 9.6375C8.82917 10.4458 8.1875 11.3958 7.7125 12.4875C7.36615 13.2835 7.14607 14.1216 7.05226 15.0018C6.99374 15.551 6.55228 16 6 16V16Z" fill="#FFB800"/>
</svg>
